<svg viewBox="0 0 64 64" xmlns="http://www.w3.org/2000/svg">
  <g fill="currentColor">
    <circle cx="32" cy="32" r="8"></circle>
    <path d="M32 4a8 8 0 0 0-8 8c0 6 8 12 8 12s8-6 8-12a8 8 0 0 0-8-8Z"></path>
    <path d="M60 32a8 8 0 0 0-8-8c-6 0-12 8-12 8s6 8 12 8a8 8 0 0 0 8-8Z"></path>
    <path d="M32 60a8 8 0 0 0 8-8c0-6-8-12-8-12s-8 6-8 12a8 8 0 0 0 8 8Z"></path>
    <path d="M4 32a8 8 0 0 0 8 8c6 0 12-8 12-8s-6-8-12-8a8 8 0 0 0-8 8Z"></path>
    <path d="M15 15a8 8 0 0 0 11 0c4-4-3-13-3-13s-9 7-8 13Z"></path>
  </g>
</svg>
